# xmcd CD database file
#
# Track frame offsets:
#	150
#	14467
#	30892
#	43152
#	57095
#	68870
#	80947
#	93612
#	105880
#
# Disc length: 1578 seconds
#
# Revision: 2
# Processed by: cddbd v1.4PL0 Copyright (c) Steve Scherf et al.
# Submitted via: CDex 1.50Beta7
#
DISCID=6c062809
DTITLE=Merle Haggard - Branded Man
DYEAR=1900
DGENRE=Country
TTITLE0=Branded Man
TTITLE1=Hungry Eyes
TTITLE2=Workin' Man Blues
TTITLE3=I Threw Away the Rose
TTITLE4=Carolyn
TTITLE5=Things Aren't Funny Anymore
TTITLE6=I'm Always On a Mountain when I Fall
TTITLE7=The Bottle Let Me Down
TTITLE8=The Emptiest Arms in the World
EXTD=
EXTT0=
EXTT1=
EXTT2=
EXTT3=
EXTT4=
EXTT5=
EXTT6=
EXTT7=
EXTT8=
PLAYORDER=
